<svg width="197" height="102" viewBox="0 0 197 102" fill="none" xmlns="http://www.w3.org/2000/svg">
<rect x="196.35" width="102" height="196.35" rx="16.575" transform="rotate(90 196.35 0)" fill="#68BC98"/>
<mask id="mask0" mask-type="alpha" maskUnits="userSpaceOnUse" x="0" y="0" width="197" height="102">
<rect x="196.35" width="102" height="196.35" rx="16.575" transform="rotate(90 196.35 0)" fill="#68BC98"/>
</mask>
<g mask="url(#mask0)">
<path d="M182.652 47.8478C187.618 55.9202 196.659 53.5675 201.533 47.3105C206.407 41.0534 202.704 30.0431 194.576 29.1733C186.158 28.2966 178.538 41.187 182.652 47.8478Z" fill="#F9AD6D"/>
</g>
<path d="M91.5935 76.1999V65.3063H96.3824C97.4942 65.3063 98.3714 65.5562 99.014 66.056C99.6668 66.5558 99.9932 67.2545 99.9932 68.1521C99.9932 68.7641 99.8249 69.2894 99.4883 69.728C99.1517 70.1666 98.6774 70.4726 98.0654 70.646V70.5236C98.7692 70.6766 99.3098 70.9877 99.6872 71.4569C100.075 71.9261 100.269 72.5177 100.269 73.2317C100.269 74.1599 99.9371 74.8892 99.2741 75.4196C98.6213 75.9398 97.7033 76.1999 96.5201 76.1999H91.5935ZM93.5213 74.6546H96.3212C97.0454 74.6546 97.5707 74.5322 97.8971 74.2874C98.2337 74.0324 98.402 73.6244 98.402 73.0634C98.402 72.5126 98.2337 72.1046 97.8971 71.8394C97.5605 71.5742 97.0352 71.4416 96.3212 71.4416H93.5213V74.6546ZM93.5213 69.8963H96.0458C96.7496 69.8963 97.2698 69.7688 97.6064 69.5138C97.943 69.2588 98.1113 68.8763 98.1113 68.3663C98.1113 67.8461 97.943 67.4636 97.6064 67.2188C97.2698 66.974 96.7496 66.8516 96.0458 66.8516H93.5213V69.8963ZM104.707 76.1999V65.3063H106.681V76.1999H104.707ZM116.44 76.3223C115.379 76.3223 114.461 76.0979 113.686 75.6491C112.911 75.2003 112.314 74.5577 111.896 73.7213C111.478 72.8849 111.268 71.8955 111.268 70.7531C111.268 69.6005 111.478 68.6111 111.896 67.7849C112.314 66.9485 112.911 66.3059 113.686 65.8571C114.461 65.4083 115.379 65.1839 116.44 65.1839C117.511 65.1839 118.434 65.4083 119.209 65.8571C119.984 66.3059 120.581 66.9485 120.999 67.7849C121.417 68.6111 121.627 69.5954 121.627 70.7378C121.627 71.8904 121.412 72.8849 120.984 73.7213C120.566 74.5577 119.969 75.2003 119.194 75.6491C118.429 76.0979 117.511 76.3223 116.44 76.3223ZM116.44 74.7617C117.439 74.7617 118.225 74.42 118.796 73.7366C119.367 73.043 119.653 72.0434 119.653 70.7378C119.653 69.4322 119.367 68.4428 118.796 67.7696C118.225 67.0862 117.439 66.7445 116.44 66.7445C115.45 66.7445 114.67 67.0862 114.099 67.7696C113.528 68.4428 113.242 69.4322 113.242 70.7378C113.242 72.0434 113.528 73.043 114.099 73.7366C114.67 74.42 115.45 74.7617 116.44 74.7617ZM126.198 76.1999V65.3063H128.171V74.5781H133.251V76.1999H126.198ZM141.546 76.3223C140.486 76.3223 139.568 76.0979 138.792 75.6491C138.017 75.2003 137.42 74.5577 137.002 73.7213C136.584 72.8849 136.375 71.8955 136.375 70.7531C136.375 69.6005 136.584 68.6111 137.002 67.7849C137.42 66.9485 138.017 66.3059 138.792 65.8571C139.568 65.4083 140.486 65.1839 141.546 65.1839C142.617 65.1839 143.54 65.4083 144.316 65.8571C145.091 66.3059 145.688 66.9485 146.106 67.7849C146.524 68.6111 146.733 69.5954 146.733 70.7378C146.733 71.8904 146.519 72.8849 146.09 73.7213C145.672 74.5577 145.076 75.2003 144.3 75.6491C143.535 76.0979 142.617 76.3223 141.546 76.3223ZM141.546 74.7617C142.546 74.7617 143.331 74.42 143.903 73.7366C144.474 73.043 144.759 72.0434 144.759 70.7378C144.759 69.4322 144.474 68.4428 143.903 67.7696C143.331 67.0862 142.546 66.7445 141.546 66.7445C140.557 66.7445 139.777 67.0862 139.205 67.7696C138.634 68.4428 138.349 69.4322 138.349 70.7378C138.349 72.0434 138.634 73.043 139.205 73.7366C139.777 74.42 140.557 74.7617 141.546 74.7617ZM156.43 76.3223C155.298 76.3223 154.318 76.103 153.492 75.6644C152.676 75.2156 152.049 74.5781 151.61 73.7519C151.182 72.9155 150.968 71.9108 150.968 70.7378C150.968 69.5852 151.182 68.5958 151.61 67.7696C152.049 66.9332 152.671 66.2957 153.477 65.8571C154.283 65.4083 155.236 65.1839 156.338 65.1839C157.103 65.1839 157.817 65.291 158.48 65.5052C159.143 65.7194 159.704 66.0356 160.163 66.4538L159.49 67.892C158.97 67.4942 158.465 67.2086 157.975 67.0352C157.486 66.8516 156.95 66.7598 156.369 66.7598C155.257 66.7598 154.41 67.0964 153.829 67.7696C153.258 68.4428 152.972 69.4322 152.972 70.7378C152.972 72.074 153.268 73.0838 153.859 73.7672C154.451 74.4404 155.333 74.777 156.506 74.777C156.955 74.777 157.394 74.7413 157.822 74.6699C158.261 74.5883 158.674 74.4761 159.061 74.3333L158.602 75.0677V71.7323H156.262V70.3094H160.393V75.542C160.056 75.7154 159.673 75.8582 159.245 75.9704C158.817 76.0826 158.363 76.1693 157.883 76.2305C157.404 76.2917 156.919 76.3223 156.43 76.3223ZM167.603 76.1999V71.3039L168.016 72.4973L163.181 65.3063H165.43L168.873 70.6613H168.306L171.749 65.3063H173.998L169.179 72.4973L169.576 71.3039V76.1999H167.603Z" fill="white"/>
<g opacity="0.6">
<path d="M21.4939 44.7948C22.9141 41.0428 27.5017 39.9837 33.4027 40.4358C48.4284 41.2301 48.2839 32.9511 42.5023 24.233C40.0891 20.5972 38.694 17.181 39.0271 14.3783C39.1591 13.3063 39.5424 12.3247 40.2148 11.4529" stroke="#FCFBF9" stroke-width="1.9125" stroke-miterlimit="10" stroke-linecap="round" stroke-linejoin="round"/>
<path d="M35.946 53.3708C38.3969 50.2323 36.9955 45.6213 33.6648 40.5907C25.4764 27.6168 32.5274 23.6065 42.7645 24.3879C46.8179 24.6978 50.2428 24.2975 52.4612 22.7992C53.4729 22.1147 54.2333 21.2041 54.6795 20.0288" stroke="#FCFBF9" stroke-width="1.9125" stroke-miterlimit="10" stroke-linecap="round" stroke-linejoin="round"/>
<path d="M36.9263 34.7074L30.0827 30.6518" stroke="#FCFBF9" stroke-width="1.9125" stroke-miterlimit="10" stroke-linejoin="round"/>
<path d="M30.9883 46.2096L24.2139 42.1928" stroke="#FCFBF9" stroke-width="1.9125" stroke-miterlimit="10" stroke-linejoin="round"/>
<path d="M52.4748 22.8185L45.8197 18.8727" stroke="#FCFBF9" stroke-width="1.9125" stroke-miterlimit="10" stroke-linejoin="round"/>
<path d="M41.5275 31.2329L32.7672 26.0343" stroke="#FCFBF9" stroke-width="1.9125" stroke-miterlimit="10" stroke-linejoin="round"/>
</g>
</svg>
