<svg width="198" height="102" viewBox="0 0 198 102" fill="none" xmlns="http://www.w3.org/2000/svg">
<rect x="197.625" width="102" height="197.625" rx="16.575" transform="rotate(90 197.625 0)" fill="#FCA964"/>
<mask id="mask0" mask-type="alpha" maskUnits="userSpaceOnUse" x="0" y="0" width="198" height="102">
<rect x="197.625" width="102" height="197.625" rx="16.575" transform="rotate(90 197.625 0)" fill="#F9AD6D"/>
</mask>
<g mask="url(#mask0)">
<path d="M128.948 60.1742C151.23 56.32 160.865 82.2671 153.017 94.3838C140.938 113.031 120.576 110.674 112.205 100.357C99.2545 84.3972 110.112 63.4323 128.948 60.1742Z" fill="#7B7FDA"/>
</g>
<path d="M72.3006 76.3224C71.2194 76.3224 70.281 76.098 69.4854 75.6492C68.6898 75.1902 68.0778 74.5425 67.6494 73.7061C67.2312 72.8697 67.0221 71.8803 67.0221 70.7379C67.0221 69.6057 67.2312 68.6265 67.6494 67.8003C68.0778 66.9639 68.6898 66.3213 69.4854 65.8725C70.281 65.4135 71.2194 65.184 72.3006 65.184C73.035 65.184 73.7235 65.2962 74.3661 65.5206C75.0189 65.7348 75.5595 66.051 75.9879 66.4692L75.3453 67.9074C74.8455 67.5096 74.3559 67.224 73.8765 67.0506C73.3971 66.867 72.882 66.7752 72.3312 66.7752C71.2806 66.7752 70.4646 67.1169 69.8832 67.8003C69.312 68.4735 69.0264 69.4527 69.0264 70.7379C69.0264 72.0231 69.312 73.0125 69.8832 73.7061C70.4646 74.3895 71.2806 74.7312 72.3312 74.7312C72.882 74.7312 73.3971 74.6445 73.8765 74.4711C74.3559 74.2875 74.8455 73.9968 75.3453 73.599L75.9879 75.0372C75.5595 75.4554 75.0189 75.7767 74.3661 76.0011C73.7235 76.2153 73.035 76.3224 72.3006 76.3224ZM87.9106 76.2V65.3064H89.8384V76.2H87.9106ZM80.3677 76.2V65.3064H82.3108V76.2H80.3677ZM81.0715 71.457V69.8811H89.0428V71.457H81.0715ZM94.7662 76.2V65.3064H102.049V66.8517H96.694V69.8811H101.743V71.4417H96.694V74.6547H102.049V76.2H94.7662ZM106.446 76.2V65.3064H108.022L112.138 74.6853H111.388L115.473 65.3064H117.049V76.2H115.289L115.274 68.1369L115.794 68.2593L112.398 76.2H111.097L107.624 68.2593L108.175 68.1369L108.19 76.2H106.446ZM121.965 76.2V65.3064H123.938V76.2H121.965ZM132.55 76.3224C131.989 76.3224 131.453 76.2765 130.943 76.1847C130.433 76.0827 129.954 75.9348 129.505 75.741C129.066 75.5472 128.679 75.3126 128.342 75.0372L129 73.599C129.551 74.007 130.112 74.3028 130.683 74.4864C131.254 74.67 131.882 74.7618 132.565 74.7618C133.32 74.7618 133.901 74.6292 134.309 74.364C134.727 74.0988 134.937 73.7265 134.937 73.2471C134.937 72.9615 134.845 72.7269 134.661 72.5433C134.478 72.3495 134.202 72.1863 133.835 72.0537C133.468 71.9211 133.014 71.7936 132.473 71.6712C131.831 71.5488 131.265 71.4009 130.775 71.2275C130.285 71.0439 129.877 70.8297 129.551 70.5849C129.225 70.3401 128.975 70.0494 128.801 69.7128C128.638 69.366 128.556 68.958 128.556 68.4888C128.556 67.8462 128.73 67.275 129.077 66.7752C129.423 66.2754 129.908 65.8878 130.53 65.6124C131.163 65.3268 131.902 65.184 132.749 65.184C133.259 65.184 133.753 65.235 134.233 65.337C134.722 65.439 135.171 65.5869 135.579 65.7807C135.987 65.9643 136.339 66.1938 136.635 66.4692L135.962 67.9074C135.472 67.5096 134.962 67.2189 134.432 67.0353C133.901 66.8415 133.345 66.7446 132.764 66.7446C132.06 66.7446 131.504 66.8874 131.096 67.173C130.688 67.4586 130.484 67.8564 130.484 68.3664C130.484 68.6622 130.566 68.907 130.729 69.1008C130.902 69.2946 131.163 69.4578 131.509 69.5904C131.866 69.723 132.32 69.8556 132.871 69.9882C133.503 70.1208 134.064 70.2738 134.554 70.4472C135.054 70.6206 135.477 70.8297 135.824 71.0745C136.171 71.3091 136.431 71.5947 136.604 71.9313C136.788 72.2577 136.88 72.6504 136.88 73.1094C136.88 73.7622 136.706 74.3334 136.359 74.823C136.013 75.3024 135.513 75.6747 134.86 75.9399C134.217 76.1949 133.447 76.3224 132.55 76.3224ZM143.605 76.2V66.9282H140.055V65.3064H149.143V66.9282H145.594V76.2H143.605ZM153.058 76.2V65.3064H157.724C158.958 65.3064 159.897 65.5767 160.539 66.1173C161.182 66.6579 161.503 67.4331 161.503 68.4429C161.503 69.4017 161.172 70.1667 160.509 70.7379C159.846 71.2989 158.923 71.5794 157.739 71.5794L158.963 71.3346C159.341 71.3346 159.677 71.4468 159.973 71.6712C160.269 71.8956 160.504 72.2424 160.677 72.7116L162.023 76.2H159.943L158.566 72.5739C158.423 72.2169 158.219 71.9772 157.954 71.8548C157.699 71.7324 157.377 71.6712 156.99 71.6712H155.001V76.2H153.058ZM154.985 70.1412H157.449C158.203 70.1412 158.754 70.0035 159.101 69.7281C159.448 69.4527 159.621 69.0396 159.621 68.4888C159.621 67.9278 159.448 67.5147 159.101 67.2495C158.754 66.9843 158.203 66.8517 157.449 66.8517H154.985V70.1412ZM168.878 76.2V71.304L169.291 72.4974L164.456 65.3064H166.705L170.148 70.6614H169.582L173.024 65.3064H175.273L170.454 72.4974L170.851 71.304V76.2H168.878Z" fill="white"/>
<g opacity="0.6">
<path d="M28.0817 26.1827C30.3148 26.1827 32.1251 24.3097 32.1251 21.9993C32.1251 19.6888 30.3148 17.8158 28.0817 17.8158C25.8485 17.8158 24.0382 19.6888 24.0382 21.9993C24.0382 24.3097 25.8485 26.1827 28.0817 26.1827Z" stroke="#FCFBF9" stroke-width="1.9125" stroke-miterlimit="10" stroke-linecap="round" stroke-linejoin="round"/>
<path d="M50.4227 30.0636C53.2165 30.0636 55.4814 27.7204 55.4814 24.8298C55.4814 21.9392 53.2165 19.5959 50.4227 19.5959C47.6288 19.5959 45.364 21.9392 45.364 24.8298C45.364 27.7204 47.6288 30.0636 50.4227 30.0636Z" stroke="#FCFBF9" stroke-width="1.9125" stroke-miterlimit="10" stroke-linecap="round" stroke-linejoin="round"/>
<path d="M39.7812 40.4652C42.865 40.4652 45.365 37.8787 45.365 34.6881C45.365 31.4975 42.865 28.911 39.7812 28.911C36.6973 28.911 34.1973 31.4975 34.1973 34.6881C34.1973 37.8787 36.6973 40.4652 39.7812 40.4652Z" stroke="#FCFBF9" stroke-width="1.9125" stroke-miterlimit="10" stroke-linecap="round" stroke-linejoin="round"/>
<path d="M52.1721 47.3053C54.1539 47.3053 55.7605 45.6431 55.7605 43.5927C55.7605 41.5423 54.1539 39.8801 52.1721 39.8801C50.1903 39.8801 48.5838 41.5423 48.5838 43.5927C48.5838 45.6431 50.1903 47.3053 52.1721 47.3053Z" stroke="#FCFBF9" stroke-width="1.9125" stroke-miterlimit="10" stroke-linecap="round" stroke-linejoin="round"/>
<path d="M31.1449 54.1443C33.3877 54.1443 35.2058 52.2632 35.2058 49.9428C35.2058 47.6223 33.3877 45.7412 31.1449 45.7412C28.9021 45.7412 27.0839 47.6223 27.0839 49.9428C27.0839 52.2632 28.9021 54.1443 31.1449 54.1443Z" stroke="#FCFBF9" stroke-width="1.9125" stroke-miterlimit="10" stroke-linecap="round" stroke-linejoin="round"/>
<path d="M44.0456 30.6317L46.6245 28.2834" stroke="#FCFBF9" stroke-width="1.9125" stroke-miterlimit="10" stroke-linecap="round" stroke-linejoin="round"/>
<path d="M30.7366 25.3138L35.7836 30.6503" stroke="#FCFBF9" stroke-width="1.9125" stroke-miterlimit="10" stroke-linecap="round" stroke-linejoin="round"/>
<path d="M49.4665 41.1534L44.4486 37.8634" stroke="#FCFBF9" stroke-width="1.9125" stroke-miterlimit="10" stroke-linecap="round" stroke-linejoin="round"/>
<path d="M32.9603 46.2303L36.7879 39.5657" stroke="#FCFBF9" stroke-width="1.9125" stroke-miterlimit="10" stroke-linecap="round" stroke-linejoin="round"/>
</g>
</svg>
