<svg width="197" height="102" viewBox="0 0 197 102" fill="none" xmlns="http://www.w3.org/2000/svg">
<rect x="196.35" width="102" height="196.35" rx="16.575" transform="rotate(90 196.35 0)" fill="#506AAC"/>
<mask id="mask0" mask-type="alpha" maskUnits="userSpaceOnUse" x="0" y="0" width="197" height="102">
<rect width="102" height="196.35" rx="16.575" transform="matrix(5.17525e-08 1 1 -3.69197e-08 -6.10352e-05 0)" fill="#7B7FDA"/>
</mask>
<g mask="url(#mask0)">
<path d="M14.534 61.5663C37.7041 57.7046 47.7228 83.7023 39.5616 95.8427C27.0016 114.526 5.82875 112.165 -2.87632 101.827C-16.3422 85.8366 -5.05251 64.8307 14.534 61.5663Z" fill="#FCA964"/>
</g>
<path d="M99.0591 64.725V53.8314H106.342V55.3767H100.987V58.4061L106.036 58.4061V59.9667L100.987 59.9667V63.1797L106.342 63.1797V64.725H99.0591ZM110.708 64.725V53.8314H112.177L118.45 61.9863L118.037 62.2005V53.8314H119.888V64.725H118.404L112.162 56.6007L112.56 56.3559V64.725H110.708ZM129.934 64.8474C128.801 64.8474 127.822 64.6281 126.996 64.1895C126.18 63.7407 125.553 63.1032 125.114 62.277C124.686 61.4406 124.472 60.4359 124.472 59.2629C124.472 58.1103 124.686 57.1209 125.114 56.2947C125.553 55.4583 126.175 54.8208 126.981 54.3822C127.787 53.9334 128.74 53.709 129.842 53.709C130.607 53.709 131.321 53.8161 131.984 54.0303C132.647 54.2445 133.208 54.5607 133.667 54.9789L132.994 56.4171C132.473 56.0193 131.969 55.7337 131.479 55.5603C130.989 55.3767 130.454 55.2849 129.872 55.2849C128.761 55.2849 127.914 55.6215 127.333 56.2947C126.761 56.9679 126.476 57.9573 126.476 59.2629C126.476 60.5991 126.772 61.6089 127.363 62.2923C127.955 62.9655 128.837 63.3021 130.01 63.3021C130.459 63.3021 130.898 63.2664 131.326 63.195C131.765 63.1134 132.178 63.0012 132.565 62.8584L132.106 63.5928V60.2574H129.765V58.8345H133.896V64.0671C133.56 64.2405 133.177 64.3833 132.749 64.4955C132.32 64.6077 131.867 64.6944 131.387 64.7556C130.908 64.8168 130.423 64.8474 129.934 64.8474ZM138.684 64.725V53.8314H140.657V63.1032H145.737V64.725H138.684ZM149.795 64.725V53.8314H151.769V64.725H149.795ZM160.38 64.8474C159.819 64.8474 159.284 64.8015 158.774 64.7097C158.264 64.6077 157.784 64.4598 157.336 64.266C156.897 64.0722 156.509 63.8376 156.173 63.5622L156.831 62.124C157.382 62.532 157.943 62.8278 158.514 63.0114C159.085 63.195 159.712 63.2868 160.396 63.2868C161.15 63.2868 161.732 63.1542 162.14 62.889C162.558 62.6238 162.767 62.2515 162.767 61.7721C162.767 61.4865 162.675 61.2519 162.492 61.0683C162.308 60.8745 162.033 60.7113 161.666 60.5787C161.298 60.4461 160.844 60.3186 160.304 60.1962C159.661 60.0738 159.095 59.9259 158.606 59.7525C158.116 59.5689 157.708 59.3547 157.382 59.1099C157.055 58.8651 156.805 58.5744 156.632 58.2378C156.469 57.891 156.387 57.483 156.387 57.0138C156.387 56.3712 156.56 55.8 156.907 55.3002C157.254 54.8004 157.739 54.4128 158.361 54.1374C158.993 53.8518 159.733 53.709 160.579 53.709C161.089 53.709 161.584 53.76 162.063 53.862C162.553 53.964 163.002 54.1119 163.41 54.3057C163.818 54.4893 164.17 54.7188 164.465 54.9942L163.792 56.4324C163.303 56.0346 162.793 55.7439 162.262 55.5603C161.732 55.3665 161.176 55.2696 160.595 55.2696C159.891 55.2696 159.335 55.4124 158.927 55.698C158.519 55.9836 158.315 56.3814 158.315 56.8914C158.315 57.1872 158.396 57.432 158.56 57.6258C158.733 57.8196 158.993 57.9828 159.34 58.1154C159.697 58.248 160.151 58.3806 160.702 58.5132C161.334 58.6458 161.895 58.7988 162.385 58.9722C162.884 59.1456 163.308 59.3547 163.655 59.5995C164.001 59.8341 164.261 60.1197 164.435 60.4563C164.618 60.7827 164.71 61.1754 164.71 61.6344C164.71 62.2872 164.537 62.8584 164.19 63.348C163.843 63.8274 163.343 64.1997 162.691 64.4649C162.048 64.7199 161.278 64.8474 160.38 64.8474ZM176.647 64.725V53.8314H178.575V64.725H176.647ZM169.104 64.725V53.8314H171.047V64.725H169.104ZM169.808 59.982V58.4061H177.779V59.982H169.808ZM77.5037 82.725V71.8314H79.4774V81.1032H84.557V82.725H77.5037ZM89.3363 82.725H87.3474L92.2739 71.8314H93.8804L98.807 82.725H96.8486L92.84 73.3614H93.3755L89.3363 82.725ZM89.5199 80.1699L90.2696 78.6399H95.8235L96.5426 80.1699H89.5199ZM102.535 82.725V71.8314H104.004L110.277 79.9863L109.864 80.2005V71.8314H111.715V82.725L110.231 82.725L103.989 74.6007L104.387 74.3559V82.725H102.535ZM121.761 82.8474C120.628 82.8474 119.649 82.6281 118.823 82.1895C118.007 81.7407 117.38 81.1032 116.941 80.277C116.513 79.4406 116.299 78.4359 116.299 77.2629C116.299 76.1103 116.513 75.1209 116.941 74.2947C117.38 73.4583 118.002 72.8208 118.808 72.3822C119.614 71.9334 120.567 71.709 121.669 71.709C122.434 71.709 123.148 71.8161 123.811 72.0303C124.474 72.2445 125.035 72.5607 125.494 72.9789L124.821 74.4171C124.3 74.0193 123.796 73.7337 123.306 73.5603C122.816 73.3767 122.281 73.2849 121.699 73.2849C120.588 73.2849 119.741 73.6215 119.16 74.2947C118.588 74.9679 118.303 75.9573 118.303 77.2629C118.303 78.5991 118.599 79.6089 119.19 80.2923C119.782 80.9655 120.664 81.3021 121.837 81.3021C122.286 81.3021 122.725 81.2664 123.153 81.195C123.592 81.1134 124.005 81.0012 124.392 80.8584L123.933 81.5928V78.2574H121.592V76.8345H125.723V82.0671C125.387 82.2405 125.004 82.3833 124.576 82.4955C124.147 82.6077 123.694 82.6944 123.214 82.7556C122.735 82.8168 122.25 82.8474 121.761 82.8474ZM135.009 82.8474C133.51 82.8474 132.372 82.4649 131.597 81.6999C130.832 80.9349 130.45 79.8078 130.45 78.3186V71.8314H132.377V78.4257C132.377 79.3641 132.597 80.0781 133.035 80.5677C133.484 81.0471 134.142 81.2868 135.009 81.2868C135.845 81.2868 136.483 81.042 136.921 80.5524C137.37 80.0628 137.595 79.3539 137.595 78.4257V71.8314H139.553V78.3186C139.553 79.7976 139.16 80.9247 138.375 81.6999C137.6 82.4649 136.478 82.8474 135.009 82.8474ZM145.123 82.725H143.134L148.06 71.8314H149.667L154.593 82.725H152.635L148.626 73.3614H149.162L145.123 82.725ZM145.306 80.1699L146.056 78.6399H151.61L152.329 80.1699H145.306ZM163.104 82.8474C161.971 82.8474 160.992 82.6281 160.166 82.1895C159.35 81.7407 158.723 81.1032 158.284 80.277C157.856 79.4406 157.641 78.4359 157.641 77.2629C157.641 76.1103 157.856 75.1209 158.284 74.2947C158.723 73.4583 159.345 72.8208 160.151 72.3822C160.956 71.9334 161.91 71.709 163.012 71.709C163.777 71.709 164.491 71.8161 165.154 72.0303C165.817 72.2445 166.378 72.5607 166.837 72.9789L166.164 74.4171C165.643 74.0193 165.138 73.7337 164.649 73.5603C164.159 73.3767 163.624 73.2849 163.042 73.2849C161.931 73.2849 161.084 73.6215 160.503 74.2947C159.931 74.9679 159.646 75.9573 159.646 77.2629C159.646 78.5991 159.942 79.6089 160.533 80.2923C161.125 80.9655 162.007 81.3021 163.18 81.3021C163.629 81.3021 164.067 81.2664 164.496 81.195C164.934 81.1134 165.348 81.0012 165.735 80.8584L165.276 81.5928V78.2574H162.935V76.8345L167.066 76.8345V82.0671C166.73 82.2405 166.347 82.3833 165.919 82.4955C165.49 82.6077 165.036 82.6944 164.557 82.7556C164.078 82.8168 163.593 82.8474 163.104 82.8474ZM171.854 82.725V71.8314H179.136V73.3767H173.781V76.4061H178.83V77.9667H173.781V81.1797H179.136V82.725H171.854Z" fill="white"/>
<path opacity="0.5" d="M57.853 14.0249H28.8468C28.2641 14.0249 27.7731 14.2268 27.3738 14.6304C26.9746 15.0341 26.7749 15.5305 26.7749 16.1196V35.0041C26.7749 35.5932 26.9746 36.0896 27.3738 36.4932C27.7731 36.8969 28.2641 37.0987 28.8468 37.0987H32.9906V42.3026C32.9906 42.4117 33.0013 42.5153 33.0229 42.6135C33.0445 42.7117 33.0823 42.8044 33.1362 42.8917C33.1902 42.979 33.2603 43.0554 33.3467 43.1208C33.433 43.1863 33.5193 43.2408 33.6056 43.2845C33.6704 43.3063 33.7351 43.3226 33.7999 43.3336C33.8646 43.3445 33.9402 43.3499 34.0265 43.3499C34.3071 43.3499 34.5445 43.2517 34.7387 43.0554L40.7277 37.0987H57.853C58.4357 37.0987 58.9267 36.8969 59.326 36.4932C59.7253 36.0896 59.9249 35.5932 59.9249 35.0041V16.1196C59.9249 15.8796 59.8925 15.6559 59.8278 15.4486C59.763 15.2414 59.6659 15.0504 59.5364 14.8759C59.4069 14.7013 59.2559 14.5486 59.0832 14.4177C58.9105 14.2868 58.7163 14.1886 58.5005 14.1231C58.2847 14.0577 58.0689 14.0249 57.853 14.0249ZM57.853 35.0041H39.886L35.0624 39.8152V35.0041H28.8468V16.1196H57.853V35.0041ZM34.0265 26.6255H52.6733C52.9539 26.6255 53.1967 26.5219 53.4017 26.3146C53.6068 26.1073 53.7093 25.8619 53.7093 25.5782C53.7093 25.2946 53.6068 25.0491 53.4017 24.8418C53.1967 24.6345 52.9539 24.5309 52.6733 24.5309H34.0265C33.7459 24.5309 33.5031 24.6345 33.2981 24.8418C33.0931 25.0491 32.9906 25.2946 32.9906 25.5782C32.9906 25.8619 33.0931 26.1073 33.2981 26.3146C33.5031 26.5219 33.7459 26.6255 34.0265 26.6255ZM34.0265 22.4362H52.6733C52.9539 22.4362 53.1967 22.3326 53.4017 22.1253C53.6068 21.918 53.7093 21.6726 53.7093 21.3889C53.7093 21.1053 53.6068 20.8598 53.4017 20.6525C53.1967 20.4452 52.9539 20.3416 52.6733 20.3416H34.0265C33.7459 20.3416 33.5031 20.4452 33.2981 20.6525C33.0931 20.8598 32.9906 21.1053 32.9906 21.3889C32.9906 21.6726 33.0931 21.918 33.2981 22.1253C33.5031 22.3326 33.7459 22.4362 34.0265 22.4362ZM34.0265 30.8148H46.4577C46.7383 30.8148 46.9811 30.7112 47.1861 30.5039C47.3911 30.2966 47.4937 30.0511 47.4937 29.7675C47.4937 29.4838 47.3911 29.2384 47.1861 29.0311C46.9811 28.8238 46.7383 28.7202 46.4577 28.7202H34.0265C33.7459 28.7202 33.5031 28.8238 33.2981 29.0311C33.0931 29.2384 32.9906 29.4838 32.9906 29.7675C32.9906 30.0511 33.0931 30.2966 33.2981 30.5039C33.5031 30.7112 33.7459 30.8148 34.0265 30.8148Z" fill="white"/>
</svg>
