<svg width="198" height="102" viewBox="0 0 198 102" fill="none" xmlns="http://www.w3.org/2000/svg">
<rect x="197.625" y="1.52588e-05" width="102" height="197.625" rx="16.575" transform="rotate(90 197.625 1.52588e-05)" fill="#EA7052"/>
<mask id="mask0" mask-type="alpha" maskUnits="userSpaceOnUse" x="0" y="0" width="198" height="102">
<rect x="197.625" y="3.05176e-05" width="102" height="197.625" rx="16.575" transform="rotate(90 197.625 3.05176e-05)" fill="#EA7052"/>
</mask>
<g mask="url(#mask0)">
<path d="M143.785 -15.8334C139.448 1.34739 156.253 11.9408 172.539 11.5974C188.824 11.2539 199.288 -7.61418 188.504 -20.759C177.302 -34.3428 147.339 -30.0345 143.785 -15.8334Z" fill="#68BC98"/>
</g>
<path d="M39.8324 76.2V65.3064H41.4083L45.524 74.6853H44.7743L48.8594 65.3064H50.4353V76.2H48.6758L48.6605 68.1369L49.1807 68.2593L45.7841 76.2H44.4836L41.0105 68.2593L41.5613 68.1369L41.5766 76.2H39.8324ZM56.1617 76.2H54.1727L59.0993 65.3064H60.7058L65.6324 76.2H63.674L59.6654 66.8364H60.2009L56.1617 76.2ZM56.3453 73.6449L57.095 72.1149H62.6489L63.368 73.6449H56.3453ZM70.5712 76.2V66.9282H67.0216V65.3064H76.1098V66.9282H72.5602V76.2H70.5712ZM87.5669 76.2V65.3064H89.4947V76.2H87.5669ZM80.024 76.2V65.3064H81.9671V76.2H80.024ZM80.7278 71.457V69.8811L88.6991 69.8811V71.457L80.7278 71.457ZM94.4226 76.2V65.3064H101.705V66.8517H96.3504V69.8811H101.399V71.4417H96.3504V74.6547H101.705V76.2H94.4226ZM106.102 76.2V65.3064H107.678L111.794 74.6853H111.044L115.129 65.3064H116.705V76.2H114.946L114.931 68.1369L115.451 68.2593L112.054 76.2H110.754L107.281 68.2593L107.831 68.1369L107.847 76.2H106.102ZM122.432 76.2H120.443L125.369 65.3064H126.976L131.902 76.2H129.944L125.935 66.8364H126.471L122.432 76.2ZM122.615 73.6449L123.365 72.1149H128.919L129.638 73.6449H122.615ZM136.841 76.2V66.9282H133.292V65.3064H142.38V66.9282H138.83V76.2H136.841ZM146.294 76.2V65.3064H148.268V76.2H146.294ZM158.134 76.3224C157.053 76.3224 156.114 76.098 155.319 75.6492C154.523 75.1902 153.911 74.5425 153.483 73.7061C153.065 72.8697 152.855 71.8803 152.855 70.7379C152.855 69.6057 153.065 68.6265 153.483 67.8003C153.911 66.9639 154.523 66.3213 155.319 65.8725C156.114 65.4135 157.053 65.184 158.134 65.184C158.868 65.184 159.557 65.2962 160.199 65.5206C160.852 65.7348 161.393 66.051 161.821 66.4692L161.179 67.9074C160.679 67.5096 160.189 67.224 159.71 67.0506C159.23 66.867 158.715 66.7752 158.165 66.7752C157.114 66.7752 156.298 67.1169 155.717 67.8003C155.145 68.4735 154.86 69.4527 154.86 70.7379C154.86 72.0231 155.145 73.0125 155.717 73.7061C156.298 74.3895 157.114 74.7312 158.165 74.7312C158.715 74.7312 159.23 74.6445 159.71 74.4711C160.189 74.2875 160.679 73.9968 161.179 73.599L161.821 75.0372C161.393 75.4554 160.852 75.7767 160.199 76.0011C159.557 76.2153 158.868 76.3224 158.134 76.3224ZM169.679 76.3224C169.118 76.3224 168.583 76.2765 168.073 76.1847C167.563 76.0827 167.083 75.9348 166.634 75.741C166.196 75.5472 165.808 75.3126 165.472 75.0372L166.13 73.599C166.68 74.007 167.241 74.3028 167.813 74.4864C168.384 74.67 169.011 74.7618 169.694 74.7618C170.449 74.7618 171.031 74.6292 171.439 74.364C171.857 74.0988 172.066 73.7265 172.066 73.2471C172.066 72.9615 171.974 72.7269 171.791 72.5433C171.607 72.3495 171.332 72.1863 170.964 72.0537C170.597 71.9211 170.143 71.7936 169.603 71.6712C168.96 71.5488 168.394 71.4009 167.904 71.2275C167.415 71.0439 167.007 70.8297 166.68 70.5849C166.354 70.3401 166.104 70.0494 165.931 69.7128C165.767 69.366 165.686 68.958 165.686 68.4888C165.686 67.8462 165.859 67.275 166.206 66.7752C166.553 66.2754 167.037 65.8878 167.66 65.6124C168.292 65.3268 169.031 65.184 169.878 65.184C170.388 65.184 170.883 65.235 171.362 65.337C171.852 65.439 172.301 65.5869 172.709 65.7807C173.117 65.9643 173.468 66.1938 173.764 66.4692L173.091 67.9074C172.601 67.5096 172.091 67.2189 171.561 67.0353C171.031 66.8415 170.475 66.7446 169.893 66.7446C169.19 66.7446 168.634 66.8874 168.226 67.173C167.818 67.4586 167.614 67.8564 167.614 68.3664C167.614 68.6622 167.695 68.907 167.858 69.1008C168.032 69.2946 168.292 69.4578 168.639 69.5904C168.996 69.723 169.45 69.8556 170 69.9882C170.633 70.1208 171.194 70.2738 171.683 70.4472C172.183 70.6206 172.607 70.8297 172.953 71.0745C173.3 71.3091 173.56 71.5947 173.734 71.9313C173.917 72.2577 174.009 72.6504 174.009 73.1094C174.009 73.7622 173.836 74.3334 173.489 74.823C173.142 75.3024 172.642 75.6747 171.989 75.9399C171.347 76.1949 170.577 76.3224 169.679 76.3224Z" fill="white"/>
<g opacity="0.6">
<path d="M57.3551 19.383H44.2747L27.0866 43.9453L24.3814 33.8535" stroke="#FCFBF9" stroke-width="1.9125" stroke-miterlimit="10" stroke-linejoin="round"/>
<path d="M42.3478 28.3513L54.7603 44.9945" stroke="#FCFBF9" stroke-width="1.9125" stroke-miterlimit="10" stroke-linejoin="round"/>
<path d="M54.7603 28.3513L42.3478 44.9945" stroke="#FCFBF9" stroke-width="1.9125" stroke-miterlimit="10" stroke-linejoin="round"/>
<path d="M24.1692 18.4464L28.3326 24.0272" stroke="#FCFBF9" stroke-width="1.9125" stroke-miterlimit="10" stroke-linejoin="round"/>
<path d="M32.5851 18.4464L24.1692 29.7294" stroke="#FCFBF9" stroke-width="1.9125" stroke-miterlimit="10" stroke-linejoin="round"/>
</g>
</svg>
