<svg width="25" height="25" viewBox="0 0 25 25" fill="none" xmlns="http://www.w3.org/2000/svg">
<path d="M12.5645 13.4941C13.1167 13.4941 13.5645 13.0464 13.5645 12.4941C13.5645 11.9419 13.1167 11.4941 12.5645 11.4941C12.0122 11.4941 11.5645 11.9419 11.5645 12.4941C11.5645 13.0464 12.0122 13.4941 12.5645 13.4941Z" stroke="black" stroke-width="2" stroke-linecap="round" stroke-linejoin="round"/>
<path d="M12.5645 6.49414C13.1167 6.49414 13.5645 6.04643 13.5645 5.49414C13.5645 4.94186 13.1167 4.49414 12.5645 4.49414C12.0122 4.49414 11.5645 4.94186 11.5645 5.49414C11.5645 6.04643 12.0122 6.49414 12.5645 6.49414Z" stroke="black" stroke-width="2" stroke-linecap="round" stroke-linejoin="round"/>
<path d="M12.5645 20.4941C13.1167 20.4941 13.5645 20.0464 13.5645 19.4941C13.5645 18.9419 13.1167 18.4941 12.5645 18.4941C12.0122 18.4941 11.5645 18.9419 11.5645 19.4941C11.5645 20.0464 12.0122 20.4941 12.5645 20.4941Z" stroke="black" stroke-width="2" stroke-linecap="round" stroke-linejoin="round"/>
</svg>
