<svg width="198" height="102" viewBox="0 0 198 102" fill="none" xmlns="http://www.w3.org/2000/svg">
<rect x="197.625" width="102" height="197.625" rx="16.575" transform="rotate(90 197.625 0)" fill="#7B7FDA"/>
<mask id="mask0" mask-type="alpha" maskUnits="userSpaceOnUse" x="0" y="0" width="198" height="102">
<rect x="197.625" width="102" height="197.625" rx="16.575" transform="rotate(90 197.625 0)" fill="#7B7FDA"/>
</mask>
<g mask="url(#mask0)">
<path d="M70.0383 88.9683C139.436 80.1038 160.305 304.693 145.246 337.053C130.187 369.413 19.6087 282.038 -21.5855 260.804C-64.1058 238.745 12.7024 96.2341 70.0383 88.9683Z" fill="#EA7052"/>
</g>
<path d="M94.9157 76.2V65.3064H99.6434C100.827 65.3064 101.739 65.592 102.382 66.1632C103.035 66.7242 103.361 67.4943 103.361 68.4735C103.361 69.4425 103.03 70.2126 102.367 70.7838C101.714 71.355 100.806 71.6406 99.6434 71.6406H96.8894V76.2H94.9157ZM96.8894 70.1259H99.4139C100.107 70.1259 100.623 69.9831 100.959 69.6975C101.306 69.4119 101.479 69.009 101.479 68.4888C101.479 67.9584 101.311 67.5555 100.974 67.2801C100.638 66.9945 100.118 66.8517 99.4139 66.8517H96.8894V70.1259ZM115.199 76.2V65.3064H117.126V76.2H115.199ZM107.656 76.2V65.3064H109.599V76.2H107.656ZM108.359 71.457V69.8811H116.331V71.457H108.359ZM124.701 76.2V71.304L125.114 72.4974L120.279 65.3064H122.529L125.971 70.6614H125.405L128.847 65.3064H131.097L126.277 72.4974L126.675 71.304V76.2H124.701ZM137.57 76.3224C137.009 76.3224 136.474 76.2765 135.964 76.1847C135.454 76.0827 134.974 75.9348 134.525 75.741C134.087 75.5472 133.699 75.3126 133.363 75.0372L134.021 73.599C134.571 74.007 135.132 74.3028 135.704 74.4864C136.275 74.67 136.902 74.7618 137.585 74.7618C138.34 74.7618 138.922 74.6292 139.33 74.364C139.748 74.0988 139.957 73.7265 139.957 73.2471C139.957 72.9615 139.865 72.7269 139.682 72.5433C139.498 72.3495 139.223 72.1863 138.855 72.0537C138.488 71.9211 138.034 71.7936 137.494 71.6712C136.851 71.5488 136.285 71.4009 135.795 71.2275C135.306 71.0439 134.898 70.8297 134.571 70.5849C134.245 70.3401 133.995 70.0494 133.822 69.7128C133.658 69.366 133.577 68.958 133.577 68.4888C133.577 67.8462 133.75 67.275 134.097 66.7752C134.444 66.2754 134.928 65.8878 135.551 65.6124C136.183 65.3268 136.922 65.184 137.769 65.184C138.279 65.184 138.774 65.235 139.253 65.337C139.743 65.439 140.192 65.5869 140.6 65.7807C141.008 65.9643 141.359 66.1938 141.655 66.4692L140.982 67.9074C140.492 67.5096 139.982 67.2189 139.452 67.0353C138.922 66.8415 138.366 66.7446 137.784 66.7446C137.081 66.7446 136.525 66.8874 136.117 67.173C135.709 67.4586 135.505 67.8564 135.505 68.3664C135.505 68.6622 135.586 68.907 135.749 69.1008C135.923 69.2946 136.183 69.4578 136.53 69.5904C136.887 69.723 137.341 69.8556 137.891 69.9882C138.524 70.1208 139.085 70.2738 139.574 70.4472C140.074 70.6206 140.498 70.8297 140.844 71.0745C141.191 71.3091 141.451 71.5947 141.625 71.9313C141.808 72.2577 141.9 72.6504 141.9 73.1094C141.9 73.7622 141.727 74.3334 141.38 74.823C141.033 75.3024 140.533 75.6747 139.88 75.9399C139.238 76.1949 138.468 76.3224 137.57 76.3224ZM146.294 76.2V65.3064H148.268V76.2H146.294ZM158.134 76.3224C157.053 76.3224 156.114 76.098 155.319 75.6492C154.523 75.1902 153.911 74.5425 153.483 73.7061C153.065 72.8697 152.855 71.8803 152.855 70.7379C152.855 69.6057 153.065 68.6265 153.483 67.8003C153.911 66.9639 154.523 66.3213 155.319 65.8725C156.114 65.4135 157.053 65.184 158.134 65.184C158.868 65.184 159.557 65.2962 160.199 65.5206C160.852 65.7348 161.393 66.051 161.821 66.4692L161.179 67.9074C160.679 67.5096 160.189 67.224 159.71 67.0506C159.23 66.867 158.715 66.7752 158.165 66.7752C157.114 66.7752 156.298 67.1169 155.717 67.8003C155.145 68.4735 154.86 69.4527 154.86 70.7379C154.86 72.0231 155.145 73.0125 155.717 73.7061C156.298 74.3895 157.114 74.7312 158.165 74.7312C158.715 74.7312 159.23 74.6445 159.71 74.4711C160.189 74.2875 160.679 73.9968 161.179 73.599L161.821 75.0372C161.393 75.4554 160.852 75.7767 160.199 76.0011C159.557 76.2153 158.868 76.3224 158.134 76.3224ZM169.679 76.3224C169.118 76.3224 168.583 76.2765 168.073 76.1847C167.563 76.0827 167.083 75.9348 166.634 75.741C166.196 75.5472 165.808 75.3126 165.472 75.0372L166.13 73.599C166.68 74.007 167.241 74.3028 167.813 74.4864C168.384 74.67 169.011 74.7618 169.694 74.7618C170.449 74.7618 171.031 74.6292 171.439 74.364C171.857 74.0988 172.066 73.7265 172.066 73.2471C172.066 72.9615 171.974 72.7269 171.791 72.5433C171.607 72.3495 171.332 72.1863 170.964 72.0537C170.597 71.9211 170.143 71.7936 169.603 71.6712C168.96 71.5488 168.394 71.4009 167.904 71.2275C167.415 71.0439 167.007 70.8297 166.68 70.5849C166.354 70.3401 166.104 70.0494 165.931 69.7128C165.767 69.366 165.686 68.958 165.686 68.4888C165.686 67.8462 165.859 67.275 166.206 66.7752C166.553 66.2754 167.037 65.8878 167.66 65.6124C168.292 65.3268 169.031 65.184 169.878 65.184C170.388 65.184 170.883 65.235 171.362 65.337C171.852 65.439 172.301 65.5869 172.709 65.7807C173.117 65.9643 173.468 66.1938 173.764 66.4692L173.091 67.9074C172.601 67.5096 172.091 67.2189 171.561 67.0353C171.031 66.8415 170.475 66.7446 169.893 66.7446C169.19 66.7446 168.634 66.8874 168.226 67.173C167.818 67.4586 167.614 67.8564 167.614 68.3664C167.614 68.6622 167.695 68.907 167.858 69.1008C168.032 69.2946 168.292 69.4578 168.639 69.5904C168.996 69.723 169.45 69.8556 170 69.9882C170.633 70.1208 171.194 70.2738 171.683 70.4472C172.183 70.6206 172.607 70.8297 172.953 71.0745C173.3 71.3091 173.56 71.5947 173.734 71.9313C173.917 72.2577 174.009 72.6504 174.009 73.1094C174.009 73.7622 173.836 74.3334 173.489 74.823C173.142 75.3024 172.642 75.6747 171.989 75.9399C171.347 76.1949 170.577 76.3224 169.679 76.3224Z" fill="white"/>
<g opacity="0.6">
<path d="M47.1446 24.3303C47.1446 25.4002 46.2957 26.2404 45.2817 26.2404C44.2677 26.2404 43.4187 25.4002 43.4187 24.3303C43.4187 23.2604 44.2677 22.4202 45.2817 22.4202C46.2957 22.4202 47.1446 23.2604 47.1446 24.3303Z" stroke="#FCFBF9" stroke-width="1.9125" stroke-miterlimit="10" stroke-linejoin="round"/>
<path d="M40.5827 41.9615C49.0403 36.5135 53.1858 25.8545 50.3933 15.2701C39.9829 18.1025 32.9716 27.0878 32.565 37.2588L40.5827 41.9615Z" stroke="#FCFBF9" stroke-width="1.9125" stroke-miterlimit="10" stroke-linejoin="round"/>
<path d="M40.5818 41.9616C42.048 44.3739 42.4412 47.3961 41.7881 50.2014C45.7803 47.4503 48.073 41.8396 46.1935 36.8252" stroke="#FCFBF9" stroke-width="1.9125" stroke-miterlimit="10" stroke-linejoin="round"/>
<path d="M32.6112 37.2858C29.8253 37.2045 27.0527 38.37 24.9867 40.3419C25.3332 35.4495 28.9655 30.6316 34.1774 29.771" stroke="#FCFBF9" stroke-width="1.9125" stroke-miterlimit="10" stroke-linejoin="round"/>
<path d="M39.4233 41.2902C38.2836 44.7393 35.3644 47.4497 31.5722 48.4187C30.4991 44.597 31.3522 40.6668 33.7182 37.9427" stroke="#FCFBF9" stroke-width="1.9125" stroke-miterlimit="10" stroke-linejoin="round"/>
</g>
</svg>
